<?xml version="1.0" encoding="UTF-8"?>
<svg enable-background="new 0 0 418.14 353.304" viewBox="0 0 418.14 353.304" xmlns="http://www.w3.org/2000/svg">
 <path d="m0 0h418.14v353.3h-418.14v-353.3z" fill="#cae0eb" fill-rule="evenodd"/>
 <path d="m97.38,28.296c-1.044-2.088-.864-3.852.54-5.436 1.368-1.656 3.852-2.88 7.596-4.068 5.148,3.636 10.62,7.668 16.848,12.24s15.624,11.304 19.836,14.94c4.032,3.456 1.872.072 4.356,6.228 2.448,6.228 5.652,16.236 10.044,30.708 6.804-.252 13.284.288 20.124,1.62 6.732,1.332 15.192,3.852 20.088,6.192 4.716,2.232 7.524,4.392 8.424,6.876l.54,6.768-1.62,1.116c-4.572,20.808-7.884,39.312-9.792,56.484-2.052,16.956-1.656,31.068-1.872,45.396-.216,14.364-.036,27.54.54,40.213-13.644,3.96-26.46,5.724-39.42,5.436-12.996-.432-25.164-2.7-37.476-7.344-1.908-24.732-4.176-48.276-6.804-72-2.628-23.688-5.616-46.368-8.964-69.012l-1.908-.828v-6.228c2.916-4.896 8.352-8.388 16.308-11.016 8.028-2.592 18.216-3.996 31.248-4.356l-9.792-27.036c-6.66-4.392-12.996-8.82-19.548-13.284-6.552-4.501-12.888-9.037-19.296-13.609z" fill-rule="evenodd" stroke="#000" stroke-miterlimit="10" stroke-width=".036"/>
 <path d="m103.896,20.412c-2.556,1.008-4.14,2.052-5.148,3.276-.972,1.188-1.152,3.096-.54,3.78 .576.504 2.952,0 4.068-.54 .936-.684 1.476-2.232 1.908-3.24 .36-1.116.54-2.16.54-3.276h-.828z" fill="#2cb0cf" fill-rule="evenodd" stroke="#000" stroke-miterlimit="10" stroke-width=".036"/>
 <path d="m100.62,29.124c2.052.072 3.456-.288 4.644-1.368 1.044-1.116 1.728-2.7 1.908-4.896l36.396,26.352 16.308,48.636c-1.944.792-3.348.972-4.608.54-1.26-.468-2.124-1.548-2.736-3.24l-14.94-39.132c4.032.792 5.976.972 5.976.828-.072-.18-2.088-.972-6.192-2.088 3.204-.972 4.716-1.548 4.68-1.728-.072-.18-1.836,0-5.148.684 1.656-2.844 2.268-4.464 2.232-4.464-.18-.18-1.008,1.26-2.88,3.924-11.88-7.992-23.76-16.02-35.64-24.048z" fill="#2cb0cf" fill-rule="evenodd" stroke="#000" stroke-miterlimit="10" stroke-width=".036"/>
 <path d="m157.14,84.816 .828,2.988c4.248-.504 9-.324 14.4.54 5.4.792 17.388,3.96 17.928,4.356 .36.144-9.936-1.872-15.192-2.448-5.364-.54-10.62-.72-16.308-.54l2.448,7.056c.864-.036 1.26-.54 1.332-1.368 0-1.008-1.512-3.564-1.08-3.78 .36-.252 2.7,1.764 3.276,2.7 .468.828.504,1.692-.288,2.736-.792,1.008-2.232,3.204-4.608,3.528-2.556.144-8.784-1.008-10.332-1.908-1.62-.9-1.296-1.944.828-3.276l-1.368-5.688c-3.888-.576-7.776-.576-11.952,0-4.356.576-12.168,3.276-13.032,3.24-.72-.144 4.356-3.168 8.424-4.068 3.96-.972 8.928-1.656 15.192-1.908l-1.368-2.448c-7.02-.036-13.5.648-19.836,1.908-6.444,1.188-14.04,3.888-17.928,5.724-3.924,1.872-5.688,3.78-5.436,5.148 .18,1.224 2.124,1.296 7.092,2.448 5.04,1.224 12.78,3.6 22.824,4.356 10.044.504 26.208.324 36.684-.54 10.368-.936 19.764-3.132 24.984-4.356 4.968-1.224 6.084-1.62 5.436-2.988-.72-1.476-4.68-3.924-9.252-5.688-4.752-1.98-12.204-4.176-17.928-5.184-5.724-.972-10.8-1.152-15.768-.54z" fill="#c0c0c0" fill-rule="evenodd" stroke="#000" stroke-miterlimit="10" stroke-width=".036"/>
 <path d="m105.804,105.588-.828-4.32 5.184,1.08 .54,2.988 3.528.792 .792-2.412 5.184.792 .792,3.276 3.816.792 1.368-3.24 6.516,1.08 .828,3.528 5.148.288 1.368-3.528 5.976.252 1.368,3.528h4.608l1.368-3.78 6.516.252 1.08,2.988 4.608-.252 1.116-3.564 5.688-.252 1.62,2.448 5.436-.828 .828-2.988 4.896-1.08 2.448,2.7 3.78-1.08 1.908-3.528 3.816-1.08 2.448,2.448 2.988-.828-.288,2.736c-4.284,1.404-9.576,2.484-16.02,3.78-6.516,1.224-14.544,2.448-22.572,3.276-8.1.576-15.912,1.872-25.524.828-9.756-1.044-20.34-3.456-32.328-7.092z" fill="#c0c0c0" fill-rule="evenodd" stroke="#000" stroke-miterlimit="10" stroke-width=".036"/>
 <path d="m102.276,106.56c2.7,2.124 8.064,3.924 16.308,5.437 8.28,1.512 20.7,3.744 32.868,3.528 12.168-.252 30.924-3.564 39.384-4.896 8.388-1.332 10.62-2.988 10.62-2.988s-1.944,4.14-2.988,10.26c-1.08,6.12-1.584,8.46-2.196,16.02-9.108,14.076-20.556,22.86-35.028,27.18-14.508,4.176-31.212,3.456-51.084-2.16-.216-.864-.9-5.652-2.196-14.364-1.368-8.929-3.168-21.277-5.688-38.017z" fill="#fb0f0c" fill-rule="evenodd" stroke="#000" stroke-miterlimit="10" stroke-width=".036"/>
 <path d="m110.7,162.18c6.012,2.304 13.248,3.708 21.996,4.068 8.856.324 19.656,1.908 30.168-1.908 10.332-3.96 20.7-10.836 31.5-21.168-1.8,13.68-2.844,26.28-3.528,38.231-.576,11.845-.792,22.753-.252,32.868-13.644,5.185-26.496,7.597-39.132,7.633-12.708-.072-24.48-2.7-36.144-7.885-.144-3.06-.648-8.712-1.368-17.388-.792-8.747-1.872-20.087-3.24-34.451z" fill="#fff" fill-rule="evenodd" stroke="#000" stroke-miterlimit="10" stroke-width=".036"/>
 <path d="m115.308,216.72c-.36.972 2.448,2.196 8.712,3.816 6.3,1.62 17.244,5.832 28.512,5.688 11.16-.359 23.472-2.664 37.764-7.308l-.54,21.708c-11.556,3.672-23.112,5.436-35.064,5.436-12.096-.036-23.904-1.979-36.396-5.688-.216-5.148-.576-9.685-1.08-13.608-.504-3.96-1.188-7.308-1.908-10.044z" fill="#fb0f0c" fill-rule="evenodd" stroke="#000" stroke-miterlimit="10" stroke-width=".036"/>
 <path d="m215.59 206.19c73.288 0 132.77 28.644 132.77 63.937s-59.48 63.936-132.77 63.936-132.77-28.643-132.77-63.936 59.48-63.937 132.77-63.937" fill-rule="evenodd"/>
 <path d="m215.83 206.97c72.632 0 131.58 28.24 131.58 63.036s-58.948 63.036-131.58 63.036-131.58-28.24-131.58-63.036 58.948-63.036 131.58-63.036" fill="#d18836" fill-rule="evenodd"/>
 <path d="m216.19 210.72c70.883 0 128.41 26.886 128.41 60.012s-57.528 60.013-128.41 60.013-128.41-26.886-128.41-60.013 57.53-60.012 128.41-60.012" fill="#184180" fill-rule="evenodd"/>
 <path d="m216.91 221.56c54.728 0 99.144 20.789 99.144 46.404s-44.416 46.404-99.144 46.404-99.144-20.789-99.144-46.404 44.417-46.404 99.144-46.404" fill="#1c0a7f" fill-rule="evenodd"/>
 <path d="m217.51 225.78c52.642 0 95.364 19.063 95.364 42.553s-42.723 42.552-95.364 42.552-95.364-19.063-95.364-42.552 42.723-42.553 95.364-42.553" fill="#fff" fill-rule="evenodd"/>
 <path d="m138.024,276.084c-3.132-3.601-3.276-13.788-.288-19.44 2.988-5.688 8.676-10.403 17.892-14.436 9.144-4.248 21.24-8.568 36.684-10.044 15.444-1.513 38.124-1.8 55.116,1.476 16.849,3.276 35.928,11.484 45.576,17.964 9.468,6.372 12.024,14.292 11.268,20.269-.972,5.939-6.588,15.012-16.163,15.12-9.648-.145-24.696-12.276-40.681-15.444-16.2-3.348-39.528-4.86-54.828-3.852s-27,8.424-36.072,9.899c-9.144,1.296-15.444,1.944-18.504-1.512z" fill="#e0dbdc" fill-rule="evenodd"/>
 <path d="m94.176 277.09 18.18-10.908-13.572-12.06 23.112-8.064-4.068-11.556 24.552-1.692 2.304-10.224 1.44 11.231-21.636 2.7 1.728 9.864-19.62 8.388 9.504 11.593c-9.576 5.399-15.84 8.928-19.62 10.728-3.708 1.763-4.428 1.763-2.304 0z" fill="#f8f6f7" fill-rule="evenodd"/>
 <path d="m300.24 227.45-0.288 8.063 24.516 5.185-4.032 13.428 19.332 7.704-16.452 9.899 15.301 11.232-20.484-10.729 14.148-10.224-16.74-7.884 4.896-11.916-23.939-7.057 3.742-7.701z" fill="#f8f6f7" fill-rule="evenodd"/>
 <path d="m317.052,294.372-13.607,1.584-3.421,15.048-23.399.612-8.784,12.636-20.196-7.2-15.552,11.124 13.608-13.968 20.231,5.832 9.612-11.196 21.06.18 6.66-15.084 13.788.432z" fill="#f8f6f7" fill-rule="evenodd"/>
 <path d="m195.552,323.892-8.172-6.479-24.948,4.5-10.764-12.097-23.436.685 2.772-13.681-23.868-3.563 27.468,1.332-.576,13.14 21.528.36 8.532,11.196 26.388-2.845 5.076,7.452z" fill="#f8f6f7" fill-rule="evenodd"/>
 <path d="m180.76 214.52 22.86 4.969 16.488-7.813 19.404 7.488 18.145-3.924 9.18 9.359 17.604-1.188-18.288 2.844-10.115-7.992-15.948 2.7-19.044-6.048-16.74 6.084c-11.484-2.664-18.936-4.464-22.932-5.544s-4.106-1.438-0.614-0.935z" fill="#f8f6f7" fill-rule="evenodd"/>
 <path d="m315.972,208.151c1.08-5.075.576-9.936-1.116-15.012-1.8-5.076-3.96-10.548-9.54-15.156-5.796-4.824-15.659-9.828-24.336-12.78-8.712-2.952-17.567-4.284-27.54-4.536-10.151-.36-22.644-.108-32.615,2.7-10.116,2.844-20.628,8.46-27.252,13.932-6.66,5.436-10.764,11.664-12.456,18.108-1.8,6.228-1.188,12.708 1.836,19.439-.288,2.448-1.512,3.853-3.672,4.212-2.268.145-7.992-2.916-9.54-2.376-1.548.576-.792,4.356.324,5.652 1.008,1.188 2.916,1.656 5.868,1.548-2.088,1.116-3.24,2.196-3.312,3.24-.144.972.792,2.052 2.664,2.952l-5.688,7.523 .432,4.068c1.728-.252 3.6-.252 5.616,0 1.98.216 3.996.576 6.192,1.224-1.836,2.376-2.844,4.681-3.168,6.912-.36,2.269.108,4.248 1.26,6.336-.504,5.148.18,9.792 1.764,13.933 1.584,4.067 2.088,6.336 7.884,10.691 5.76,4.212 16.092,11.124 26.424,14.76 10.188,3.601 21.456,7.345 34.632,6.769 13.104-.792 33.336-4.752 43.632-10.908 10.044-6.3 15.732-14.688 16.92-25.992l2.988-1.62c1.872-2.951 2.952-5.832 3.24-8.783 .288-3.024-.252-5.94-1.477-9.036 .181-1.62.324-3.601.288-5.94-.036-2.412-.252-5.076-.504-8.136 1.656.107 3.349.468 5.22,1.224 1.801.685 3.78,3.708 5.797,3.097 1.907-.757 5.544-3.673 5.651-7.2-.072-3.637-2.735-10.584-5.508-14.04-2.844-3.492-6.336-5.76-10.908-6.805z" fill-rule="evenodd" stroke="#000" stroke-miterlimit="10" stroke-width=".036"/>
 <path d="m313.668,210.563c-1.548,6.517-5.976,11.809-13.284,15.876-7.56,3.925-19.296,6.948-31.032,8.101-11.808,1.08-26.964.107-38.952-1.368-12.168-1.584-24.552-3.456-32.724-7.56-8.208-4.248-13.932-10.729-15.66-17.353-1.656-6.84.18-15.696 5.508-22.536 5.22-6.804 16.344-14.256 25.596-18.036 9.144-3.888 20.052-4.572 28.979-5.112 8.784-.648 15.517-.288 23.652,1.224 8.028,1.332 17.208,3.204 24.624,7.164 7.344,3.996 15.12,9.468 19.152,16.271 3.889,6.625 5.545,16.67 4.141,23.329z" fill="#c58f2b" fill-rule="evenodd" stroke="#000" stroke-miterlimit="10" stroke-width=".036"/>
 <path d="m316.188,209.735c2.845.685 5.328,2.269 7.597,4.753 2.195,2.447 4.932,6.695 5.724,9.972 .685,3.168-.432,7.884-1.404,9.288-1.188,1.224-2.376-.612-4.932-1.477-2.7-.972-6.588-2.699-10.116-3.636-3.456-.9-6.912-1.548-10.512-1.8 2.664-.685 5.148-2.376 7.452-5.22 2.267-2.951 4.283-6.767 6.191-11.88z" fill="#108e35" fill-rule="evenodd" stroke="#000" stroke-miterlimit="10" stroke-width=".036"/>
 <path d="m293.508,245.124c-2.592.72-4.536,2.844-6.264,6.228-1.692,3.42-3.024,8.101-3.853,14.185-.359-1.152-2.412-2.664-6.012-4.681-3.744-2.052-8.892-4.5-15.84-7.344 .684-1.188 1.656-1.872 2.916-2.052 1.26-.216 3.275,1.188 4.644.864 1.296-.469 2.232-1.513 2.952-3.276 1.152,1.296 2.376,1.872 3.672,1.728 1.225-.359 2.664-2.771 3.889-2.916 1.151-.144 2.159.685 3.023,2.341 .685-3.024 1.872-4.896 3.708-5.761 1.837-.936 4.177-.576 7.165.684z" fill="#f1c810" fill-rule="evenodd" stroke="#000" stroke-miterlimit="10" stroke-width=".036"/>
 <path d="m260.892,254.088c2.592,1.152 5.076,2.16 7.309,3.168 2.124.9 3.563,1.368 6.12,2.808 2.52,1.477 5.544,3.313 9.071,5.796l-.468,3.097c-3.528-2.736-7.056-5.112-10.872-7.128-3.815-2.124-7.74-3.889-11.916-5.292 .252-.793.504-1.621.756-2.449z" fill="#f1c810" fill-rule="evenodd" stroke="#000" stroke-miterlimit="10" stroke-width=".036"/>
 <path d="m170.856,237.348 5.292-5.651c2.196,1.728 3.888,2.52 5.472,2.771 1.44.108 2.34-1.8 3.528-1.692 1.08,0 1.872,2.196 3.348,2.017 1.368-.324 3.816-3.708 4.86-3.492 .864.145 1.188,1.764.684,4.716 .576,1.152.9,2.017 1.116,2.88 .144.721.108,1.44-.108,1.872-3.096-1.151-6.552-1.908-10.512-2.412-4.032-.575-8.388-.756-13.356-.684l-.324-.325z" fill="#f1c810" fill-rule="evenodd" stroke="#000" stroke-miterlimit="10" stroke-width=".036"/>
 <path d="m195.912,242.063c-2.16-.972-5.292-1.764-9.54-2.376-4.356-.647-9.468-1.115-15.876-1.403l.54,1.872c2.232.144 4.716.611 7.452,1.008 2.592.432 5.616.899 8.64,1.691 3.024.757 5.976,1.549 9.252,2.664-.144-1.151-.288-2.303-.468-3.456z" fill="#f1c810" fill-rule="evenodd" stroke="#000" stroke-miterlimit="10" stroke-width=".036"/>
 <path d="m196.02,227.7c-.36,2.304-.432,4.752-.072,7.487 .252,2.7 1.044,5.868 2.088,8.532 .936,2.521 1.224,5.148 4.32,6.769 3.168,1.476 9.54,5.256 14.256,2.592 4.571-2.809 8.892-8.856 13.104-18.685-4.824-.216-9.864-.936-15.516-2.016-5.652-1.151-11.664-2.663-18.18-4.679z" fill="#108e35" fill-rule="evenodd" stroke="#000" stroke-miterlimit="10" stroke-width=".036"/>
 <path d="m183.996,243.647c2.52.252 4.752.685 7.092,1.297 2.304.611 4.32,1.296 6.444,2.195 .36,1.908 1.476,3.42 3.204,4.824 1.728,1.368 4.86,2.484 7.308,3.204 2.304.54 4.644,1.26 7.164.36 2.484-1.009 5.292-3.061 8.136-6.156 1.908.18 3.888.18 5.94,0 2.016-.288 4.067-.576 6.3-1.26-.792,2.159-.576,3.491 1.044,4.14 1.548.54 4.212.36 8.136-.54l-.972,6.804c-4.428,2.34-9.504,3.853-15.516,4.536-6.12.72-12.78,2.376-20.269-.72-7.415-3.348-15.371-9.395-24.011-18.684z" fill="#fb0f0c" fill-rule="evenodd" stroke="#000" stroke-miterlimit="10" stroke-width=".036"/>
 <path d="m251.42 256.1c1.764 2.269 4.68 4.141 8.748 5.761 4.104 1.548 9.072 2.699 15.444 3.6-3.744-1.8-7.057-3.384-10.08-4.896-3.024-1.548-5.652-2.88-7.884-4.14l-3.492-5.184c-0.9 1.619-1.8 3.238-2.736 4.859z" fill="#fb0f0c" fill-rule="evenodd" stroke="#000" stroke-miterlimit="10" stroke-width=".036"/>
 <path d="m260.244,248.436c-1.116-4.212-2.269-8.424-3.42-12.672-6.156.145-11.412.288-15.624.145-4.32-.072-7.597-.433-9.973-.792-2.844,4.788-4.571,8.1-5.184,10.332-.648,2.124.144,2.195 1.404,2.592 1.224.252 3.491-.252 5.688-.685 2.088-.468 4.212-1.188 6.66-2.159-1.944,1.871-2.952,3.239-3.024,4.248-.035.936.721,1.115 2.412,1.367 1.584.108 3.744.108 6.876-.288-.432,2.664-.468,4.536.036,5.616 .36,1.044 1.656,2.232 2.772.792 1.115-1.512 2.376-4.788 3.924-9.828 2.7,3.78 4.68,5.616 5.939,5.94 1.226.216 1.73-1.368 1.514-4.608z" fill="#80c41e" fill-rule="evenodd" stroke="#000" stroke-miterlimit="10" stroke-width=".036"/>
 <path d="m286.38,262.548c1.98-.504 4.104-1.368 6.66-2.448 2.483-1.116 5.22-2.592 8.352-4.284-1.151-4.428-2.016-7.02-2.735-7.92-.685-.899-1.152,2.916-1.692,2.7-.72-.396-1.584-1.764-2.592-4.5-2.448,1.62-4.32,3.816-5.616,6.588-1.369,2.736-2.161,5.976-2.377,9.864z" fill="#fb0f0c" fill-rule="evenodd" stroke="#000" stroke-miterlimit="10" stroke-width=".036"/>
 <path d="m314.352,234.324-4.607,4.428c.071,2.52.432,4.572.936,6.3 .468,1.656 1.08,2.988 1.98,3.853l2.304-2.7c-.181-3.961-.397-7.921-.613-11.881z" fill="#fb0f0c" fill-rule="evenodd" stroke="#000" stroke-miterlimit="10" stroke-width=".036"/>
 <path d="m310.716,250.056c-.432-1.26-1.224-2.052-2.376-1.979-1.224.036-4.248.828-4.788,1.943-.576.9-.359,2.16 1.044,3.78 1.584-.72 2.772-1.332 3.853-1.979 1.007-.649 1.763-1.189 2.267-1.765z" fill="#fb0f0c" fill-rule="evenodd" stroke="#000" stroke-miterlimit="10" stroke-width=".036"/>
 <path d="m182.268,244.944c-1.764,2.447-2.304,5.039-1.62,7.775 .648,2.7 2.916,5.472 5.4,8.316 2.34,2.628 2.88,4.5 8.82,8.136 5.868,3.672 15.012,10.548 26.46,13.824 11.34,3.168 29.592,5.832 41.58,5.22 11.916-.828 21.348-4.968 29.808-9.504 8.388-4.572 14.977-10.368 20.16-17.532 2.232-3.815 3.42-6.588 3.563-8.46 .108-1.908-.252-3.888-2.88-2.736-2.844,1.225-8.712,6.769-13.283,9.54-4.608,2.664-9.253,4.572-14.076,6.156l-2.16,5.508-6.66-3.779c-2.628.611-6.192.18-10.548-1.152-4.5-1.404-9.648-3.708-15.876-7.056-5.508,2.52-11.232,4.212-17.46,5.363-6.265,1.009-13.536,2.376-19.729,1.188-6.3-1.188-12.096-5.004-17.388-8.388-5.327-3.563-9.899-7.559-14.111-12.419z" fill="#7f4008" fill-rule="evenodd" stroke="#000" stroke-miterlimit="10" stroke-width=".036"/>
 <path d="m221.04,270.18c.432.468 17.244,4.608 26.28,5.076 8.928.288 23.903-1.944 27.288-2.664 3.168-.828-2.412-1.548-7.416-1.62-5.005-.036-14.545,1.44-22.213,1.368-7.847-.252-24.299-2.592-23.939-2.16z" fill-rule="evenodd" stroke="#000" stroke-miterlimit="10" stroke-width=".036"/>
 <path d="m182.592,258.552c3.06,4.608 7.164,8.928 12.456,13.104 5.22,4.104 11.448,8.567 19.08,11.592 7.704,2.916 16.92,4.932 26.532,6.048 9.54.972 20.88,1.836 29.987.252 8.929-1.692 16.74-6.048 23.292-9.756 6.48-3.744 11.484-7.956 15.301-12.636 .323,3.743-1.009,7.38-3.996,11.34-3.097,3.96-8.101,8.352-14.04,11.771-5.977,3.168-12.708,5.796-21.601,7.345-9.144,1.512-21.42,2.844-32.256,1.476-10.872-1.656-23.796-6.229-32.256-10.368-8.496-4.248-14.544-9.252-18.288-14.328-3.851-5.077-5.111-10.26-4.211-15.84z" fill="#c58f2b" fill-rule="evenodd" stroke="#000" stroke-miterlimit="10" stroke-width=".036"/>
 <path d="m258.948,236.808c1.008,4.176 2.052,7.309 3.275,9.54 1.26,2.052 2.448,3.168 3.853,3.636 1.116.469 2.592.036 3.456-.468 .756-.504 1.224-1.512 1.403-2.735 1.368,1.044 2.593,1.476 3.673,1.439 .936-.216 1.331-1.728 2.592-2.052 1.26-.36 2.88-.18 5.004.252 .396-2.7 1.62-4.5 3.672-5.112 1.979-.684 6.588.036 8.388,1.044 1.656.864 1.152,3.924 1.944,4.464 .684.433 1.548-2.771 2.592-1.439 .937,1.332 2.952,8.208 3.564,9.252 .468.72-.217-2.196-.108-3.744-.036-1.584-.072-4.212.576-4.968 .72-.792 2.124.288 3.384.468 1.08.145 2.124.108 3.132.18-1.08-2.195-1.655-3.96-1.584-5.724 0-1.692.648-3.024 1.8-4.572 1.08-1.655 2.772-3.492 4.933-5.363l-13.284-2.557c-2.88,1.62-6.804,2.952-11.772,4.393-5.147,1.332-13.14,2.951-18.287,3.743-5.114.683-9.182.79-12.206.323z" fill="#80c41e" fill-rule="evenodd" stroke="#000" stroke-miterlimit="10" stroke-width=".036"/>
 <path d="m184.752,216.18c.252,1.8-.324,2.988-1.44,3.708-1.26.576-3.564.504-5.652.324-2.16-.36-6.372-1.872-7.092-1.62-.828.252 1.296,2.448 2.628,3.276 1.368.684 2.988,1.08 5.256,1.188-1.692,1.872-2.448,3.492-2.412,4.86 .036,1.332 1.368,2.7 2.628,3.275 1.116.433 2.952-.54 4.392-.396 1.26.18 1.8,1.656 3.708,1.116 1.872-.721 4.5-2.412 7.74-5.221-1.224-.504-2.628-1.619-4.212-3.348-1.656-1.798-3.456-4.138-5.544-7.162z" fill="#80c41e" fill-rule="evenodd" stroke="#000" stroke-miterlimit="10" stroke-width=".036"/>
 <path d="m205.56,231.948c-.072-.252-1.44-.433-1.476-.396-.216,0 .252.756.576.864 .216.036.972-.396.9-.468z" fill-rule="evenodd" stroke="#000" stroke-miterlimit="10" stroke-width=".036"/>
 <path d="m206.028,234.936c-.108-.252-1.404-.432-1.512-.396-.216,0 .252.756.576.864 .252.035.936-.396.936-.468z" fill-rule="evenodd" stroke="#000" stroke-miterlimit="10" stroke-width=".036"/>
 <path d="m206.028,240.768c-.072-.252-1.44-.432-1.476-.396-.216,0 .288.756.54.863 .252.036.936-.395.936-.467z" fill-rule="evenodd" stroke="#000" stroke-miterlimit="10" stroke-width=".036"/>
 <path d="m205.74,237.852c-.108-.288-1.404-.359-1.512-.359-.216,0 .252.756.576.863 .252.072.936-.468.936-.504z" fill-rule="evenodd" stroke="#000" stroke-miterlimit="10" stroke-width=".036"/>
 <path d="m206.856,244.116c-.108-.288-1.404-.36-1.512-.36-.216,0 .252.756.576.864 .252.071.936-.469.936-.504z" fill-rule="evenodd" stroke="#000" stroke-miterlimit="10" stroke-width=".036"/>
 <path d="m207.36,247.392c-.072-.288-1.44-.359-1.476-.359-.216,0 .288.756.54.863 .252.072.936-.468.936-.504z" fill-rule="evenodd" stroke="#000" stroke-miterlimit="10" stroke-width=".036"/>
 <path d="m210.996,248.292c.072-.216 1.332-.396 1.548-.252 .036.036-.36.72-.648.792-.324,0-1.044-.504-.9-.54z" fill-rule="evenodd" stroke="#000" stroke-miterlimit="10" stroke-width=".036"/>
 <path d="m212.147,244.764c.072-.144 1.332-.396 1.549-.216 .035.036-.36.72-.648.792-.324,0-1.044-.468-.901-.576z" fill-rule="evenodd" stroke="#000" stroke-miterlimit="10" stroke-width=".036"/>
 <path d="m213.156,241.56c.071-.144 1.332-.396 1.548-.216 .036.036-.36.72-.648.792-.325,0-1.044-.468-.9-.576z" fill-rule="evenodd" stroke="#000" stroke-miterlimit="10" stroke-width=".036"/>
 <path d="m214.523,238.752c.036-.145 1.368-.396 1.513-.216 .036.036-.36.72-.648.792-.252,0-1.044-.469-.865-.576z" fill-rule="evenodd" stroke="#000" stroke-miterlimit="10" stroke-width=".036"/>
 <path d="m215.352,235.691c.036-.144 1.368-.396 1.513-.216 .035.036-.36.721-.648.792-.253.001-1.045-.467-.865-.576z" fill-rule="evenodd" stroke="#000" stroke-miterlimit="10" stroke-width=".036"/>
 <path d="m313.344,224.244c.036-.108.576-1.368.504-1.44-.107-.252-.828.18-.899.468-.037.251.143.9.395.972z" fill-rule="evenodd" stroke="#000" stroke-miterlimit="10" stroke-width=".036"/>
 <path d="m317.052,225.899c.108-.107.612-1.367.54-1.439-.18-.252-.864.18-.936.468-.036.252.144.9.396.971z" fill-rule="evenodd" stroke="#000" stroke-miterlimit="10" stroke-width=".036"/>
 <path d="m320.688,227.735c.108-.107.612-1.367.54-1.439-.18-.252-.863.18-.936.468-.036.252.144.9.396.971z" fill-rule="evenodd" stroke="#000" stroke-miterlimit="10" stroke-width=".036"/>
 <path d="m325.116,228.996c.107-.108.611-1.368.54-1.44-.181-.252-.864.18-.937.468-.035.251.145.9.397.972z" fill-rule="evenodd" stroke="#000" stroke-miterlimit="10" stroke-width=".036"/>
 <path d="m323.568,223.56c.107-.107.611-1.368.54-1.439-.181-.252-.864.18-.937.468-.035.251.144.899.397.971z" fill-rule="evenodd" stroke="#000" stroke-miterlimit="10" stroke-width=".036"/>
 <path d="m320.796,220.032c.036-.108.54-1.368.54-1.44-.108-.252-.828.18-.9.468-.108.252.108.9.36.972z" fill-rule="evenodd" stroke="#000" stroke-miterlimit="10" stroke-width=".036"/>
 <path d="m316.62,217.224c.107-.107.611-1.368.54-1.439-.181-.252-.864.18-.937.468-.035.251.145.898.397.971z" fill-rule="evenodd" stroke="#000" stroke-miterlimit="10" stroke-width=".036"/>
 <path d="m296.928,232.488c.108-.072 2.772.684 4.248,2.411 1.404,1.692 3.564,6.624 3.996,7.704 .252.937-1.368-.792-2.088-1.979-.864-1.332-1.476-4.068-2.521-5.437-1.08-1.475-3.779-2.699-3.635-2.699z" fill-rule="evenodd" stroke="#000" stroke-miterlimit="10" stroke-width=".036"/>
 <path d="m271.368,237.744c-.288-.108-.181,2.195-.792,3.42-.828,1.151-3.601,2.88-3.601,3.24-.036.107 2.628-1.729 3.564-2.017 .684-.324.72.036 1.512.396s3.313,1.439 3.384,1.439c-.036-.216-2.664-1.332-3.312-2.376-.755-1.186-.539-3.994-.755-4.102z" fill-rule="evenodd" stroke="#000" stroke-miterlimit="10" stroke-width=".036"/>
 <path d="m246.384,238.067c-.252,1.188-.54,2.305-.792,3.385s.648,2.16-.36,3.312-5.688,3.456-5.615,3.564c.107.071 4.607-2.736 5.867-2.448 1.225.324 1.261,4.464 1.549,4.392 .252-.107-.792-2.483.899-3.96 1.729-1.476 3.853-1.655 3.853-1.655-1.765.071-3.024-.433-3.924-1.513-.901-1.116-1.441-2.808-1.477-5.077z" fill-rule="evenodd" stroke="#000" stroke-miterlimit="10" stroke-width=".036"/>
 <path d="m209.771,199.836c-.503.108-1.224.108-1.728.684-.648.433-1.872,1.296-1.872,2.053-.216.684.828,1.8 1.332,1.979 .54-.036 1.296-.72 1.98-1.476 .576-.792 1.332-2.664 1.44-3.132-.071-.54-.683-.253-1.152-.108z" fill-rule="evenodd" stroke="#000" stroke-miterlimit="10" stroke-width=".036"/>
 <path d="m209.448,200.376c-.396.036-.828.107-1.296.504-.612.288-1.476,1.152-1.62,1.764-.108.469.504,1.477 1.008,1.513 .504-.145 1.116-.648 1.692-1.368 .432-.756.972-1.908 1.08-2.34 0-.433-.612-.181-.864-.073z" fill="#f7e42c" fill-rule="evenodd" stroke="#000" stroke-miterlimit="10" stroke-width=".036"/>
 <path d="m234.72,208.584c.108.432.252,1.044.828,1.691 .432.612 1.44,1.549 2.196,1.692 .647.036 1.728-1.008 1.872-1.476-.072-.648-.792-1.368-1.62-1.872-.937-.54-2.664-1.261-3.24-1.188-.576.001-.216.577-.036,1.153z" fill-rule="evenodd" stroke="#000" stroke-miterlimit="10" stroke-width=".036"/>
 <path d="m235.296,208.872c.144.288.072.756.612,1.26 .396.468 1.26,1.332 1.907,1.476 .54-.071 1.332-.684 1.404-1.151-.18-.54-.72-1.152-1.476-1.548-.648-.469-2.052-.9-2.412-.9-.395-.001-.215.43-.035.863z" fill="#f7e42c" fill-rule="evenodd" stroke="#000" stroke-miterlimit="10" stroke-width=".036"/>
 <path d="m256.464,190.476c-.504.108-1.224.108-1.728.685-.685.432-1.765,1.296-1.872,2.052-.181.684.72,1.8 1.296,1.979 .504-.035 1.368-.72 2.016-1.476 .576-.828 1.332-2.556 1.44-3.096-.072-.504-.684-.324-1.152-.144z" fill-rule="evenodd" stroke="#000" stroke-miterlimit="10" stroke-width=".036"/>
 <path d="m256.14,191.016c-.396.036-.828.072-1.296.54-.612.36-1.476,1.225-1.62,1.764-.107.54.504,1.404 1.008,1.477 .505-.036 1.116-.756 1.692-1.332 .432-.756.972-1.908 1.08-2.34 0-.505-.612-.217-.864-.109z" fill="#fdd025" fill-rule="evenodd" stroke="#000" stroke-miterlimit="10" stroke-width=".036"/>
 <path d="m247.968,179.604c-.288.36-.647,1.044-.684,1.765-.216.756-.181,2.195.252,2.771 .324.54 1.943.612 2.376.36 .396-.468.432-1.477.252-2.448-.252-1.044-.972-2.808-1.332-3.204-.36-.36-.648.215-.864.756z" fill-rule="evenodd" stroke="#000" stroke-miterlimit="10" stroke-width=".036"/>
 <path d="m248.147,180.216c-.18.252-.575.684-.504,1.296-.18.612-.107,1.872.217,2.412 .359.432 1.367.468 1.764.252 .324-.468.252-1.368.18-2.16-.18-.828-.792-2.088-1.008-2.376-.288-.325-.504.144-.649.576z" fill="#f7e42c" fill-rule="evenodd" stroke="#000" stroke-miterlimit="10" stroke-width=".036"/>
 <path d="m259.056,173.34c.181.144.54.504 1.08.684 .468.144 1.44.288 1.944.144 .324-.36.684-1.152.504-1.548s-1.044-.504-1.62-.468c-.648,0-2.124.216-2.34.504-.36.216.107.396.432.684z" fill-rule="evenodd" stroke="#000" stroke-miterlimit="10" stroke-width=".036"/>
 <path d="m259.488,173.304c.107.216.432.252.827.504 .433.072 1.261.252 1.656.144 .252-.252.504-.972.36-1.188-.216-.288-.972-.36-1.44-.36-.611-.108-1.512.252-1.728.396-.251.108.037.324.325.504z" fill="#f7e42c" fill-rule="evenodd" stroke="#000" stroke-miterlimit="10" stroke-width=".036"/>
 <path d="m254.268,168.624c-.107-.36-.504-.756-.792-1.044-.432-.396-1.332-.9-1.728-.828-.54.036-1.08.828-1.044,1.26 0,.324.684.72 1.368,1.044 .611.144 1.907.396 2.34.36 .324-.216 0-.432-.144-.792z" fill-rule="evenodd" stroke="#000" stroke-miterlimit="10" stroke-width=".036"/>
 <path d="m253.872,168.516c-.108-.288-.36-.54-.612-.756-.396-.288-1.116-.864-1.476-.756-.396-.036-.937.612-.792.972 .036.216.611.648 1.188.864 .468.108 1.44.324 1.8.252 .216-.108-.001-.396-.108-.576z" fill="#f7e42c" fill-rule="evenodd" stroke="#000" stroke-miterlimit="10" stroke-width=".036"/>
 <path d="m241.956,169.812c.072-.396.252-.684.252-1.26-.108-.54-.108-1.584-.432-1.872-.505-.36-1.332-.36-1.656,0-.36.216-.145,1.008.072,1.692 .252.648.863,1.656 1.26,2.052 .252.144.324-.252.504-.612z" fill-rule="evenodd" stroke="#000" stroke-miterlimit="10" stroke-width=".036"/>
 <path d="m241.776,169.416c.035-.216.144-.576.18-.936-.036-.504-.216-1.368-.396-1.62-.359-.288-1.044-.288-1.224,0-.216.216-.18.9.108,1.476 .144.504.647,1.296.936,1.548 .108.144.288-.288.396-.468z" fill="#f7e42c" fill-rule="evenodd" stroke="#000" stroke-miterlimit="10" stroke-width=".036"/>
 <path d="m228.852,167.832c-.071.288-.071.72.145,1.296 .18.396.576,1.44 1.044,1.62 .396.108 1.332-.216 1.548-.54 .036-.396-.18-1.116-.648-1.584-.396-.576-1.548-1.404-1.8-1.512-.289-.144-.433.288-.289.72z" fill-rule="evenodd" stroke="#000" stroke-miterlimit="10" stroke-width=".036"/>
 <path d="m229.14,168.156c-.107.252-.071.576.108.972 .107.396.54,1.188.899,1.404 .36.036.973-.108 1.152-.432-.036-.432-.18-.936-.576-1.368-.432-.396-1.08-1.152-1.368-1.152-.251-.108-.323.216-.215.576z" fill="#f7e42c" fill-rule="evenodd" stroke="#000" stroke-miterlimit="10" stroke-width=".036"/>
 <path d="m223.92,173.52c-.216-.288-.504-.792-.864-.972-.504-.36-1.368-.828-1.764-.72-.468.036-1.116.936-.972,1.332 .071.36.684.72 1.403.936 .54.144 1.98.216 2.376.216 .181-.18.073-.54-.179-.792z" fill-rule="evenodd" stroke="#000" stroke-miterlimit="10" stroke-width=".036"/>
 <path d="m223.488,173.448c-.145-.252-.36-.54-.648-.72-.36-.252-1.188-.792-1.512-.648-.433.036-.864.648-.756,1.008 .035.252.792.612 1.296.792 .468.072 1.476.252 1.764.144 .252-.108-.072-.396-.144-.576z" fill="#fdd025" fill-rule="evenodd" stroke="#000" stroke-miterlimit="10" stroke-width=".036"/>
 <path d="m271.8,167.112c-.324-.216-.72-.54-1.188-.54-.54-.144-1.549-.252-1.908.072-.396.288-.648,1.188-.36,1.584 .108.252 1.044.396 1.692.288 .576-.18 1.979-.54 2.268-.792 .179-.216-.18-.468-.504-.612z" fill-rule="evenodd" stroke="#000" stroke-miterlimit="10" stroke-width=".036"/>
 <path d="m271.368,167.22c-.216-.216-.504-.396-.864-.396-.504-.072-1.332-.252-1.656.036-.432.216-.468.9-.252,1.224 .108.144.973.252 1.477.18 .54-.216 1.367-.36 1.655-.576 .18-.216-.216-.324-.36-.468z" fill="#f7e42c" fill-rule="evenodd" stroke="#000" stroke-miterlimit="10" stroke-width=".036"/>
 <path d="m277.632,171.9c.18-.324.288-.72.468-1.188 .108-.612.072-1.584-.107-1.944-.396-.36-1.261-.576-1.62-.252-.324.144-.396.972-.216,1.656 .107.612.54,1.908.863,2.232 .18.18.432-.18.612-.504z" fill-rule="evenodd" stroke="#000" stroke-miterlimit="10" stroke-width=".036"/>
 <path d="m277.488,171.468c.107-.252.288-.504.396-.9 .036-.504 0-1.332-.107-1.656-.324-.396-1.009-.36-1.225-.18-.288.216-.288.9-.144,1.476 .144.54.359,1.368.647,1.656 .109.216.253-.288.433-.396z" fill="#f7e42c" fill-rule="evenodd" stroke="#000" stroke-miterlimit="10" stroke-width=".036"/>
 <path d="m284.796,171.972c-.108.288 0,.756.18,1.26 .108.396.648,1.44 1.08,1.62 .396.072 1.332-.252 1.548-.576 .036-.504-.18-1.08-.647-1.584-.468-.612-1.548-1.332-1.872-1.476-.397-.216-.361.36-.289.756z" fill-rule="evenodd" stroke="#000" stroke-miterlimit="10" stroke-width=".036"/>
 <path d="m285.12,172.26c-.072.252-.072.576.144.972 .108.324.54,1.152.9,1.368 .324.036 1.044-.108 1.188-.432 .036-.432-.359-.936-.647-1.368-.433-.432-1.08-1.08-1.368-1.116-.253-.108-.325.216-.217.576z" fill="#f7e42c" fill-rule="evenodd" stroke="#000" stroke-miterlimit="10" stroke-width=".036"/>
 <path d="m293.508,179.855c-.252-.323-.684-.468-1.152-.575-.54-.217-1.548-.288-1.907-.072-.504.252-.648,1.151-.433,1.584 .145.216.973.432 1.656.359 .612-.107 1.872-.359 2.268-.611 .144-.288-.144-.468-.432-.685z" fill-rule="evenodd" stroke="#000" stroke-miterlimit="10" stroke-width=".036"/>
 <path d="m293.076,179.928c-.216-.216-.504-.36-.864-.432-.504-.252-1.332-.181-1.656-.072-.359.144-.611.864-.324,1.188 .108.18.973.323 1.477.287 .504-.071 1.439-.323 1.691-.468 .144-.179-.144-.395-.324-.503z" fill="#f7e42c" fill-rule="evenodd" stroke="#000" stroke-miterlimit="10" stroke-width=".036"/>
 <path d="m275.58,196.812c-.324-.432-.937-.828-1.548-1.044-.864-.432-2.053-.611-2.736-.396-.648.359-1.224,1.62-.9,2.231 .288.504 1.261.721 2.341.792 .899-.107 2.916-.252 3.42-.576 .395-.287-.253-.756-.577-1.007z" fill-rule="evenodd" stroke="#000" stroke-miterlimit="10" stroke-width=".036"/>
 <path d="m274.968,196.848c-.359-.324-.612-.576-1.188-.756-.721-.252-1.836-.647-2.376-.36-.612.181-.828,1.261-.648,1.692 .288.36 1.116.576 2.052.648 .721,0 2.124-.324 2.557-.433 .215-.215-.109-.611-.397-.791z" fill="#f7e42c" fill-rule="evenodd" stroke="#000" stroke-miterlimit="10" stroke-width=".036"/>
 <path d="m293.58,190.944c-.504.071-1.225.18-1.729.72-.647.432-1.872,1.296-1.872,2.052-.216.612.828,1.764 1.332,1.944 .54.036 1.297-.721 1.98-1.44 .576-.792 1.332-2.664 1.439-3.132-.07-.612-.682-.288-1.15-.144z" fill-rule="evenodd" stroke="#000" stroke-miterlimit="10" stroke-width=".036"/>
 <path d="m293.292,191.483c-.36.036-.9.072-1.332.54-.612.36-1.477,1.225-1.62,1.765-.108.54.504,1.403 1.008,1.476 .504-.036 1.116-.756 1.692-1.332 .396-.756 1.044-1.908 1.116-2.34 0-.504-.612-.216-.864-.109z" fill="#f7e42c" fill-rule="evenodd" stroke="#000" stroke-miterlimit="10" stroke-width=".036"/>
 <path d="m288.216,204.3c.18.396.396,1.008 1.044,1.548 .576.504 1.656,1.332 2.412,1.368 .648-.144 1.62-1.08 1.656-1.692-.108-.611-1.008-1.296-1.872-1.655-1.044-.469-2.809-.756-3.348-.721-.648.036-.108.648.108,1.152z" fill-rule="evenodd" stroke="#000" stroke-miterlimit="10" stroke-width=".036"/>
 <path d="m288.828,204.479c.071.36.288.648.792,1.152 .504.324 1.332,1.188 2.052,1.224 .576-.036 1.188-.936 1.26-1.296-.216-.54-.972-1.044-1.691-1.368-.757-.359-2.196-.684-2.521-.575-.36.108-.18.396.108.863z" fill="#f7e42c" fill-rule="evenodd" stroke="#000" stroke-miterlimit="10" stroke-width=".036"/>
 <path d="m287.1,218.988c.036-.54.288-1.152.216-1.837-.216-.792-.323-2.268-.863-2.628-.612-.504-2.053-.252-2.376.217-.288.54-.181,1.403.323,2.447 .433.9 1.44,2.376 2.053,2.772 .287.181.503-.467.647-.971z" fill-rule="evenodd" stroke="#000" stroke-miterlimit="10" stroke-width=".036"/>
 <path d="m286.776,218.483c.107-.396.216-.863.18-1.403-.108-.721-.36-1.944-.756-2.305-.469-.396-1.584-.287-1.801.181-.18.468-.107,1.224.36,2.124 .252.684 1.08,1.8 1.512,2.088 .361.072.252-.252.505-.685z" fill="#f7e42c" fill-rule="evenodd" stroke="#000" stroke-miterlimit="10" stroke-width=".036"/>
 <path d="m266.399,211.68c-.359-.432-.863-.828-1.512-1.044-.828-.396-2.124-.684-2.771-.432-.648.288-1.225,1.62-.9,2.195 .216.54 1.26.685 2.304.828 .9-.036 2.916-.252 3.42-.504 .324-.324-.18-.719-.541-1.043z" fill-rule="evenodd" stroke="#000" stroke-miterlimit="10" stroke-width=".036"/>
 <path d="m265.788,211.716c-.252-.288-.685-.648-1.152-.792-.72-.216-1.836-.72-2.376-.396-.684.18-.864,1.26-.684,1.691 .288.36 1.116.576 2.052.648 .72.036 2.124-.217 2.556-.36 .215-.215-.108-.611-.396-.791z" fill="#f7e42c" fill-rule="evenodd" stroke="#000" stroke-miterlimit="10" stroke-width=".036"/>
 <path d="m229.355,217.368c-.504.107-1.188.107-1.764.684-.647.432-1.872,1.296-1.872,2.052-.216.685.828,1.801 1.332,1.98 .54-.036 1.296-.72 1.98-1.477 .575-.792 1.296-2.664 1.476-3.132-.143-.539-.575-.251-1.152-.107z" fill-rule="evenodd" stroke="#000" stroke-miterlimit="10" stroke-width=".036"/>
 <path d="m229.032,217.908c-.36.107-.9,0-1.332.504-.612.359-1.477,1.188-1.62,1.8-.108.54.468,1.404 1.044,1.476 .504-.036 1.116-.756 1.691-1.332 .433-.756.973-1.907 1.08-2.34 .001-.504-.611-.216-.863-.108z" fill="#f7e42c" fill-rule="evenodd" stroke="#000" stroke-miterlimit="10" stroke-width=".036"/>
 <path d="m213.876,222.876c-.252-.396-.792-1.008-1.332-1.296-.756-.433-2.016-1.152-2.664-.9-.756.18-1.404,1.368-1.26,2.017 .108.539 1.151.899 2.16,1.224 .972.18 2.808.252 3.42.072 .396-.325-.036-.649-.324-1.117z" fill-rule="evenodd" stroke="#000" stroke-miterlimit="10" stroke-width=".036"/>
 <path d="m213.228,222.804c-.288-.396-.468-.72-.972-.972-.612-.396-1.836-.937-2.304-.792-.612.18-1.116.972-.936,1.548 .18.36 1.043.828 1.908,1.008 .684.145 2.196.108 2.592.036 .252-.144-.037-.612-.288-.828z" fill="#f7e42c" fill-rule="evenodd" stroke="#000" stroke-miterlimit="10" stroke-width=".036"/>
 <path d="m193.536,215.28c.468.216.972.432 1.8.504 .612-.036 2.304-.072 2.736-.504 .396-.54.576-1.98.144-2.376-.54-.396-1.512-.36-2.484-.036-.972.252-2.772,1.151-3.06,1.584-.324.36.288.54.864.828z" fill-rule="evenodd" stroke="#000" stroke-miterlimit="10" stroke-width=".036"/>
 <path d="m194.112,215.028c.252.071.648.396 1.332.396 .612,0 1.872-.144 2.376-.432 .396-.396.432-1.549.108-1.801-.432-.323-1.476-.216-2.16.036-.828.216-2.052.756-2.304,1.188-.288.181.252.433.648.613z" fill="#f7e42c" fill-rule="evenodd" stroke="#000" stroke-miterlimit="10" stroke-width=".036"/>
 <path d="m189.756,202.716c-.252-.504-.36-1.188-.9-1.656-.576-.611-1.656-1.655-2.268-1.62-.792.036-1.764.937-1.8,1.584 0,.505.792,1.225 1.692,1.765 .792.396 2.664,1.08 3.276,1.08 .468-.073.144-.685 0-1.153z" fill-rule="evenodd" stroke="#000" stroke-miterlimit="10" stroke-width=".036"/>
 <path d="m189.18,202.464c-.144-.432-.324-.792-.684-1.224-.576-.54-1.368-1.332-1.944-1.404-.612-.072-1.332.647-1.332,1.188 .036.469.72.973 1.512,1.513 .648.359 1.98.72 2.448.792 .288-.109.144-.541 0-.865z" fill="#f7e42c" fill-rule="evenodd" stroke="#000" stroke-miterlimit="10" stroke-width=".036"/>
 <path d="m189.036,188.063c-.18.433-.468,1.044-.324,1.836 .072.757.144,2.16.756,2.7 .504.433 1.944.216 2.376-.107 .216-.504.144-1.548-.216-2.448-.432-.937-1.476-2.592-1.872-2.88-.468-.36-.612.359-.72.899z" fill-rule="evenodd" stroke="#000" stroke-miterlimit="10" stroke-width=".036"/>
 <path d="m189.324,188.64c-.144.324-.36.685-.252,1.368-.036.54.18,1.908.648,2.304 .36.324 1.512.252 1.8-.071 .108-.469.072-1.368-.252-2.124-.324-.864-1.116-1.908-1.404-2.16-.432-.217-.432.287-.54.683z" fill="#f7e42c" fill-rule="evenodd" stroke="#000" stroke-miterlimit="10" stroke-width=".036"/>
 <path d="m200.232,183.924c-.18.468-.216,1.152.036,1.908 .18.647.612,2.16 1.296,2.448 .576.18 1.944,0 2.304-.54 .18-.612-.144-1.549-.684-2.376-.612-.792-1.98-2.305-2.448-2.448-.576-.288-.468.504-.504,1.008z" fill-rule="evenodd" stroke="#000" stroke-miterlimit="10" stroke-width=".036"/>
 <path d="m200.628,184.428c-.072.324-.252.792.036,1.404 .18.54.54,1.764 1.08,2.124 .468.144 1.476,0 1.764-.433 .072-.54-.252-1.403-.684-2.052-.396-.756-1.548-1.691-1.8-1.836-.324-.179-.504.361-.396.793z" fill="#fdd025" fill-rule="evenodd" stroke="#000" stroke-miterlimit="10" stroke-width=".036"/>
 <path d="m220.392,181.584c-.432.036-.828.144-1.188.468-.504.324-1.26.792-1.296,1.404-.108.432.468,1.26.899,1.368 .396-.036.9-.469 1.368-1.009 .324-.575.937-1.8 1.008-2.159-.071-.432-.431-.18-.791-.072z" fill-rule="evenodd" stroke="#000" stroke-miterlimit="10" stroke-width=".036"/>
 <path d="m220.176,181.944c-.324,0-.576.071-.899.359-.505.324-.973.685-1.116,1.225-.072.323.288.936.684,1.008 .324-.036.72-.469 1.188-.9 .323-.504.575-1.368.756-1.62-.073-.216-.325-.288-.613-.072z" fill="#f7e42c" fill-rule="evenodd" stroke="#000" stroke-miterlimit="10" stroke-width=".036"/>
 <path d="m212.976,186.336c-.432,0-.828.216-1.188.504-.504.324-1.26.792-1.296,1.404-.108.432.468,1.26.899,1.368 .396-.036.9-.469 1.368-1.009 .324-.575.937-1.8 1.008-2.159-.071-.396-.431-.253-.791-.108z" fill-rule="evenodd" stroke="#000" stroke-miterlimit="10" stroke-width=".036"/>
 <path d="m212.76,186.731c-.324,0-.576.072-.899.36-.505.252-.973.648-1.116,1.188-.072.396.288.936.684,1.044 .324-.108.72-.469 1.188-.937 .323-.504.611-1.368.72-1.62-.037-.25-.361-.214-.577-.035z" fill="#f7e42c" fill-rule="evenodd" stroke="#000" stroke-miterlimit="10" stroke-width=".036"/>
 <path d="m224.892,190.439c-.144.288-.144.721 0,1.296 .145.505.36,1.404.792,1.729 .396.18 1.261-.072 1.62-.324 .145-.396-.144-1.08-.432-1.656-.36-.647-1.368-1.548-1.62-1.728-.252-.216-.468.288-.36.683z" fill-rule="evenodd" stroke="#000" stroke-miterlimit="10" stroke-width=".036"/>
 <path d="m225.144,190.8c-.144.18-.144.504 0,.972 .072.36.36,1.225.721,1.477 .359.18.936-.036 1.188-.252 .072-.396-.107-.973-.396-1.44-.324-.576-1.009-1.152-1.225-1.296-.396-.217-.216.287-.288.539z" fill="#f7e42c" fill-rule="evenodd" stroke="#000" stroke-miterlimit="10" stroke-width=".036"/>
 <path d="m240.768,198.216c-.432.036-.828.144-1.188.468-.504.288-1.26.9-1.296,1.44-.072.468.432,1.188.936,1.332 .396-.036.9-.468 1.368-1.008 .324-.576.936-1.801 1.008-2.16-.036-.433-.504-.181-.828-.072z" fill-rule="evenodd" stroke="#000" stroke-miterlimit="10" stroke-width=".036"/>
 <path d="m240.552,198.576c-.324,0-.576.071-.899.359-.505.324-.973.685-1.116,1.225-.108.396.359.936.72,1.044 .324-.108.756-.469 1.152-.937 .323-.504.575-1.368.756-1.62-.073-.215-.325-.288-.613-.071z" fill="#f7e42c" fill-rule="evenodd" stroke="#000" stroke-miterlimit="10" stroke-width=".036"/>
 <path d="m240.264,185.256c0-.396-.071-.828-.216-1.296-.216-.54-.756-1.44-1.08-1.584-.468-.145-1.439.107-1.548.612-.18.323.18.972.684,1.548 .396.54 1.44,1.224 1.872,1.476 .288.108.288-.468.288-.756z" fill-rule="evenodd" stroke="#000" stroke-miterlimit="10" stroke-width=".036"/>
 <path d="m239.939,184.968c0-.288 0-.612-.144-.972-.18-.433-.684-1.261-.936-1.368-.469-.145-1.045,0-1.152.432-.072.324.18.828.612,1.368 .396.396 1.008.9 1.403,1.08 .146,0 .217-.324.217-.54z" fill="#fdd025" fill-rule="evenodd" stroke="#000" stroke-miterlimit="10" stroke-width=".036"/>
 <path d="m231.84,179.964c.144-.396.252-.684.324-1.26-.036-.54-.108-1.585-.36-1.872-.468-.396-1.332-.432-1.62-.108-.288.18-.252,1.08-.036,1.729 .145.611.792,1.764 1.116,2.088 .215.179.36-.289.576-.577z" fill-rule="evenodd" stroke="#000" stroke-miterlimit="10" stroke-width=".036"/>
 <path d="m231.66,179.567c.107-.216.144-.575.252-.936-.072-.468-.036-1.44-.288-1.656-.396-.252-1.008-.36-1.26-.036-.288.216-.145.9.035,1.476 .108.468.576,1.368.828,1.584 .181.108.325-.215.433-.432z" fill="#fdd025" fill-rule="evenodd" stroke="#000" stroke-miterlimit="10" stroke-width=".036"/>
 <path d="m211.104,176.4c-.144-.432-.18-.828-.504-1.188-.396-.504-.972-1.26-1.439-1.296-.576-.036-1.296.468-1.332.972-.108.252.468.972 1.044,1.332s1.62.828 2.16.972c.322-.073.071-.432.071-.792z" fill-rule="evenodd" stroke="#000" stroke-miterlimit="10" stroke-width=".036"/>
 <path d="m210.744,176.184c-.036-.324-.216-.576-.396-.9-.432-.432-.792-.972-1.224-1.08-.396-.072-1.008.288-1.008.684 .036.324.396.756.936,1.152 .396.324 1.26.576 1.62.756 .108-.072.18-.324.072-.612z" fill="#fdd025" fill-rule="evenodd" stroke="#000" stroke-miterlimit="10" stroke-width=".036"/>
 <path d="m270.72,178.488c0,.287.036.756.396,1.26 .252.396.828,1.224 1.332,1.368 .432.035 1.224-.504 1.403-.792 0-.433-.396-1.044-.899-1.44-.612-.504-1.729-1.116-2.088-1.152-.396-.108-.217.324-.144.756z" fill-rule="evenodd" stroke="#000" stroke-miterlimit="10" stroke-width=".036"/>
 <path d="m271.08,178.74c-.072.288.072.504.288.936 .252.324.684,1.008 1.151,1.224 .288.036 1.009-.359 1.044-.647-.071-.36-.396-.9-.827-1.224-.469-.469-1.261-.757-1.549-.864-.215-.037-.251.251-.107.575z" fill="#f7e42c" fill-rule="evenodd" stroke="#000" stroke-miterlimit="10" stroke-width=".036"/>
 <path d="m105.264,231.876-8.604-11.988c1.584-6.012 3.132-10.008 4.5-11.988 1.332-2.016 2.16-.72 3.744,0 1.584.576 3.6.9 5.616,3.744 1.836,2.7 3.708,6.948 5.616,12.744 1.08-2.736 2.124-4.32 2.988-4.896 .828-.612 1.62-.108 2.232,1.512-.576-8.064.144-13.608 1.872-16.488 1.764-2.987 6.588-2.16 8.64-1.116 1.908,1.045 2.952,3.276 2.988,7.129 1.764-4.788 4.464-8.28 8.244-10.872 3.744-2.557 11.772-4.896 14.22-4.5 2.34.359 2.124,2.34-.36,6.372 5.472-1.08 9.036-.864 10.836.359 1.692,1.152.972,5.148-.36,7.128-1.44,1.98-3.96,3.349-7.848,4.5 2.268,1.836 5.184,4.752 8.604,8.604 3.492,3.888 7.308,8.712 11.988,14.615 5.22-2.808 8.964-3.888 11.232-3.384 2.196.54 1.512,4.104 2.232,6.372 .648,2.16 2.52,4.428 1.872,6.372-.864,1.872-2.808,3.24-6.372,4.5 3.672-1.691 6.624-1.691 9,0 2.304,1.692 2.448,7.2 4.86,10.116 2.34,2.808 5.292,5.004 9,6.732 3.276,5.147 4.068,8.243 2.232,9.72-1.837,1.368-6.156.828-13.104-1.477-2.772-1.008-4.86-.756-5.976.757-1.152,1.476-1.62,4.212-1.116,8.207h-5.652c.072,4.32-1.548,7.021-4.86,8.641-3.456,1.512-7.776,2.231-15.336.359-7.704-2.088-23.076-7.848-29.988-11.987-6.912-4.212-10.656-8.316-11.232-12.708l-29.952-11.627c-.936-4.824-1.188-8.316-.36-10.477 .72-2.231 2.34-3.06 4.86-2.628-.9-2.195-.972-4.319-.36-6.372 .576-2.123 1.944-4.067 4.104-5.975z" fill-rule="evenodd" stroke="#000" stroke-miterlimit="10" stroke-width=".036"/>
 <path d="m117.61 238.21-14.976-28.44c2.196-0.72 4.248-0.216 6.012 1.513 1.656 1.62 2.376 3.563 4.5 8.604 2.16 5.04 4.752 12.061 8.208 21.348-1.224-1.009-2.484-2.017-3.744-3.025z" fill="#f7e42c" fill-rule="evenodd" stroke="#000" stroke-miterlimit="10" stroke-width=".036"/>
 <path d="m101.52 210.89-2.988 8.604 9.72 12.384 6.768 4.859-13.5-25.847z" fill="#f7e42c" fill-rule="evenodd" stroke="#000" stroke-miterlimit="10" stroke-width=".036"/>
 <path d="m120.24,242.712-14.22-9.36c-1.044,1.188-1.8,2.521-2.268,4.141-.468,1.548-.756,3.239-.72,5.22l21.348,10.512c-2.376-2.016-3.78-3.888-4.5-5.616-.756-1.801-.54-3.385.36-4.897z" fill="#f7e42c" fill-rule="evenodd" stroke="#000" stroke-miterlimit="10" stroke-width=".036"/>
 <path d="m132.228,257.328-29.592-10.872c-2.088.072-3.312.324-4.104.756-.864.432-1.692,1.008-.396,1.872 1.332.684 3.204.54 8.244,2.628 5.04,2.016 11.88,5.256 21.348,9.72-.504-.036-.504-.036 0,0 .432-.036 1.476-.036 2.988,0-1.548-.864-2.124-1.512-1.872-2.231 .252-.649 1.332-1.369 3.384-1.873z" fill="#f7e42c" fill-rule="evenodd" stroke="#000" stroke-miterlimit="10" stroke-width=".036"/>
 <path d="m126.25 267.05 0.36-4.104-28.836-12.744 1.116 6.768 27.36 10.08z" fill="#f7e42c" fill-rule="evenodd" stroke="#000" stroke-miterlimit="10" stroke-width=".036"/>
 <path d="m129.6,265.932c.036,3.276.792,5.977 2.268,8.244 1.332,2.269 4.14,3.744 6.336,5.256 2.088,1.296 2.124,1.044 6.768,2.988 4.752,1.944 15.12,6.804 20.952,8.604 5.616,1.656 9.54,1.692 12.744,1.513 3.096-.324 5.04-1.188 5.976-2.988-6.336-1.116-13.968-3.564-23.184-7.488-9.288-3.998-19.764-9.326-31.86-16.129z" fill="#f7e42c" fill-rule="evenodd" stroke="#000" stroke-miterlimit="10" stroke-width=".036"/>
 <path d="m186.912,283.932c-6.588-1.8-14.148-4.428-23.22-7.884-9.108-3.528-19.152-7.848-30.708-13.104l-1.872,1.871c7.128,4.896 15.192,9.217 24.336,13.104 9.18,3.888 19.116,7.164 30.348,10.116 .36-1.367.72-2.735 1.116-4.103z" fill="#f7e42c" fill-rule="evenodd" stroke="#000" stroke-miterlimit="10" stroke-width=".036"/>
 <path d="m143.1,265.572c7.164-2.988 14.22-5.688 21.708-8.244 7.452-2.664 17.712-5.04 22.464-7.128 4.536-2.124 4.176-3.349 4.896-5.221 .648-1.872.396-3.924-.756-6.012 .936,2.376-1.188,4.32-6.372,6.372-5.292,1.944-17.28,3.924-24.732,5.256-7.524,1.225-14.256,2.017-20.196,2.232-4.608,2.52-7.236,4.571-7.884,6.012-.72,1.368 1.872,1.44 3.744,2.592s4.068,2.485 7.128,4.141z" fill="#f7e42c" fill-rule="evenodd" stroke="#000" stroke-miterlimit="10" stroke-width=".036"/>
 <path d="m144.576,250.956 5.256-4.86c5.184-.647 10.368-1.512 16.092-2.988 5.616-1.512 13.608-4.355 17.604-5.615 3.852-1.404 4.572-2.124 5.616-1.872 .9.252.9,2.376 0,3.744-1.044,1.224-.144,2.447-5.616,4.104-5.58,1.584-20.844,4.248-27.324,5.616-6.48,1.259-10.404,1.835-11.628,1.871z" fill="#f7e42c" fill-rule="evenodd" stroke="#000" stroke-miterlimit="10" stroke-width=".036"/>
 <path d="m167.04,240.084c-2.34-.9-4.284-2.592-5.976-5.22-1.728-2.772-3.744-7.057-4.104-10.477-.504-3.42.036-6.624 1.476-9.756l19.476,22.464c-3.6.972-7.236,1.981-10.872,2.989z" fill="#f7e42c" fill-rule="evenodd" stroke="#000" stroke-miterlimit="10" stroke-width=".036"/>
 <path d="m130.716,241.992c3.168-4.212 6.444-7.992 10.512-11.628 4.032-3.708 8.172-6.984 13.104-10.116l1.872-5.256-11.628-.721c-7.848,6.192-13.536,11.736-17.208,17.208-3.744,5.4-5.544,11.088-4.86,14.977 .576,3.779 3.492,6.228 8.604,7.488-1.224-2.305-1.8-4.284-1.872-6.337-.108-2.015.432-3.887 1.476-5.615z" fill="#f7e42c" fill-rule="evenodd" stroke="#000" stroke-miterlimit="10" stroke-width=".036"/>
 <path d="m133.344,253.224 7.488-4.896c-1.512-2.376-1.836-4.32-1.116-5.977 .72-1.691 2.592-2.844 5.616-3.744-1.152-.611-1.404-1.764-.756-3.743 .684-1.944 2.052-4.572 4.5-7.885-2.412,2.088-4.608,3.996-6.732,6.013-2.16,1.8-4.104,3.348-5.976,5.615-2.052,2.232-4.644,5.761-5.256,8.244-.468,2.413.18,4.537 2.232,6.373z" fill="#f7e42c" fill-rule="evenodd" stroke="#000" stroke-miterlimit="10" stroke-width=".036"/>
 <path d="m152.82,225.504c-1.872,2.196-3.24,4.32-4.104,6.372-.936,1.943-3.204,4.464-1.116,5.616 2.088,1.08 6.48,1.224 13.464.72-1.116-1.729-2.412-3.456-3.744-5.616-1.368-2.124-2.916-4.536-4.5-7.092z" fill="#f7e42c" fill-rule="evenodd" stroke="#000" stroke-miterlimit="10" stroke-width=".036"/>
 <path d="m158.076,241.596c-3.672-.72-6.624-1.188-9-1.116-2.412-.071-4.248.072-5.22,1.116-1.044,1.08-1.296,2.736-.756,5.256l6.732-2.987c2.736-.758 5.472-1.513 8.244-2.269z" fill="#f7e42c" fill-rule="evenodd" stroke="#000" stroke-miterlimit="10" stroke-width=".036"/>
 <path d="m135.972,218.376c-.36-4.536.216-8.28 1.872-11.232 1.62-3.023 5.076-5.04 7.884-6.731 2.844-1.8 7.056-3.744 8.604-3.744 1.26.107.576,1.872-.396,3.744-1.044,1.728-4.536,4.176-5.616,6.372-1.152,2.088-1.692,4.031-1.476,5.976-1.26-.468-2.628-.216-4.5.756-1.836.899-3.96,2.519-6.372,4.859z" fill="#f7e42c" fill-rule="evenodd" stroke="#000" stroke-miterlimit="10" stroke-width=".036"/>
 <path d="m153.22 212.4 2.592-9.359c-1.872-0.612-3.312-0.072-4.464 1.476-1.152 1.513-1.908 4.141-2.268 7.884l4.14-1e-3z" fill="#f7e42c" fill-rule="evenodd" stroke="#000" stroke-miterlimit="10" stroke-width=".036"/>
 <path d="m157.32,202.644c3.6-.899 6.048-1.115 7.488-.359 1.368.72 1.62,2.916.756,4.5-1.044,1.439-4.284,3.132-5.976,4.104-1.656.756-2.916,1.008-3.78.756 .504-2.989 1.008-5.977 1.512-9.001z" fill="#f7e42c" fill-rule="evenodd" stroke="#000" stroke-miterlimit="10" stroke-width=".036"/>
 <path d="m133.344,220.248c.468-3.672.468-6.696 0-9.36-.54-2.7-1.404-5.796-2.988-6.372-1.764-.647-5.58-.647-6.732,2.628-1.152,3.204-.9,8.82.36,16.849l4.5,2.987c1.62-2.232 3.24-4.464 4.86-6.732z" fill="#f7e42c" fill-rule="evenodd" stroke="#000" stroke-miterlimit="10" stroke-width=".036"/>
 <path d="m127.73 228.49-7.488-6.372-2.232 2.987 4.104 12.385c0.576-2.521 1.332-4.572 2.268-6.013 0.936-1.511 2.052-2.555 3.348-2.987z" fill="#f7e42c" fill-rule="evenodd" stroke="#000" stroke-miterlimit="10" stroke-width=".036"/>
 <path d="m153.216,268.2c4.68.504 10.224,1.296 17.208,2.231 6.948.937 14.76,2.017 23.976,3.384-.936,1.08-1.728,2.376-2.232,3.744-.576,1.332-1.008,2.88-1.152,4.5 2.52,2.053.648,1.872-5.616-.396-6.48-2.411-16.884-6.767-32.184-13.463z" fill="#f7e42c" fill-rule="evenodd" stroke="#000" stroke-miterlimit="10" stroke-width=".036"/>
 <path d="m182.772,254.34c9.072,6.264 12.78,9.684 11.268,10.116-1.656.396-8.388-2.052-20.628-7.488 3.096-.864 6.228-1.728 9.36-2.628z" fill="#f7e42c" fill-rule="evenodd" stroke="#000" stroke-miterlimit="10" stroke-width=".036"/>
 <path d="m193.28 267.05-1.872 4.896-10.872-1.872-18.72-8.641 9.72-3.348c3.132 1.691 6.408 3.312 10.116 4.86 3.636 1.441 7.416 2.809 11.628 4.105z" fill="#f7e42c" fill-rule="evenodd" stroke="#000" stroke-miterlimit="10" stroke-width=".036"/>
 <path d="m160.31 261.83-8.244 2.628c9.324 2.16 14.904 3.275 16.884 3.348 1.836 0-3.852-2.016-5.256-2.988-1.476-1.081-2.556-1.944-3.384-2.988z" fill="#f7e42c" fill-rule="evenodd" stroke="#000" stroke-miterlimit="10" stroke-width=".036"/>
 <path d="m197.028,263.7c3.024.107 5.544.611 7.848,1.512 2.232.792 4.248,1.764 5.616,3.744 1.26,1.908 1.836,4.572 1.872,7.848l-18.324-5.256c1.8-.756 2.736-1.62 3.348-2.988 .468-1.332.396-2.953-.36-4.86z" fill="#f7e42c" fill-rule="evenodd" stroke="#000" stroke-miterlimit="10" stroke-width=".036"/>
 <path d="m188.028,253.944c2.484-3.061 4.68-3.925 6.732-2.593 1.944,1.368 3.744,4.681 5.256,10.477h-4.86c-1.08-1.404-2.34-2.664-3.384-3.384-1.188-.9-2.772-.793-3.384-1.477-.684-.755-.756-1.763-.36-3.023z" fill="#f7e42c" fill-rule="evenodd" stroke="#000" stroke-miterlimit="10" stroke-width=".036"/>
 <path d="m123.516,275.544-10.368-10.512c.612-6.192 1.512-10.368 2.556-12.528 1.008-2.196 2.016-1.044 3.708-.576 1.656.396 3.744.324 6.12,2.844 2.232,2.412 4.788,6.265 7.524,11.7 .684-2.88 1.476-4.644 2.232-5.292s1.62-.396 2.448,1.152c-1.836-7.92-1.944-13.393-.72-16.561 1.296-3.168 6.156-3.204 8.352-2.447 2.088.72 3.348,2.771 4.068,6.552 .936-5.004 3.132-8.82 6.444-11.988 3.42-3.204 10.836-6.624 13.356-6.66 2.304,0 2.556,1.98.612,6.336 5.256-1.872 8.856-2.304 10.8-1.296 1.908,1.008 1.692,4.86.72,7.092-1.008,2.124-3.492,3.96-7.056,5.652 2.556,1.477 5.832,3.924 9.828,7.2 4.032,3.312 8.64,7.452 14.112,12.563 4.752-3.563 8.28-5.256 10.584-5.075 2.304.107 2.124,3.888 3.204,5.939 .936,1.98 3.275,4.032 2.844,6.012-.504,1.908-2.376,3.673-5.616,5.437 3.384-2.268 6.3-2.736 8.892-1.404 2.483,1.368 3.636,6.66 6.372,9.216 2.735,2.376 5.939,4.141 9.899,5.292 4.032,4.572 5.328,7.561 3.744,9.253-1.656,1.619-5.904,1.764-13.176.575-2.916-.54-4.896-.036-5.796,1.656-.937,1.729-.937,4.32.144,8.316l-5.544.863c.72,4.212-.396,7.164-3.492,9.252-3.096,2.017-7.38,3.385-15.083,2.736-7.956-.792-23.904-4.212-31.464-7.2-7.452-3.023-11.808-6.588-13.068-10.836l-31.392-6.84c-1.836-4.644-2.376-8.028-2.016-10.296 .36-2.376 1.836-3.348 4.428-3.348-1.296-2.089-1.62-4.068-1.368-6.229 .216-2.195 1.404-4.282 3.168-6.55z" fill-rule="evenodd" stroke="#000" stroke-miterlimit="10" stroke-width=".036"/>
 <path d="m136.692,279.936-19.188-25.812c2.124-1.044 4.068-.864 6.12.54 1.908,1.296 2.916,3.204 5.796,7.812 2.916,4.645 6.588,11.16 11.448,19.836-1.368-.792-2.772-1.584-4.176-2.376z" fill="#f7e42c" fill-rule="evenodd" stroke="#000" stroke-miterlimit="10" stroke-width=".036"/>
 <path d="m116.57 255.42-1.656 8.964 11.556 10.692 7.416 3.779-17.316-23.435z" fill="#f7e42c" fill-rule="evenodd" stroke="#000" stroke-miterlimit="10" stroke-width=".036"/>
 <path d="m139.968,283.968-15.516-7.056c-.864,1.296-1.296,2.771-1.584,4.428-.216,1.584-.288,3.348.072,5.292l22.716,7.056c-2.592-1.655-4.356-3.275-5.292-4.859-1.008-1.657-1.044-3.277-.396-4.861z" fill="#f7e42c" fill-rule="evenodd" stroke="#000" stroke-miterlimit="10" stroke-width=".036"/>
 <path d="m154.08,296.532-30.924-6.156c-1.98.324-3.24.828-3.924,1.368-.828.575-1.512,1.26-.108,1.907 1.44.54 3.276-.035 8.568,1.332 5.22,1.261 12.6,3.313 22.572,6.301-.504.035-.504.035 0,0 .468-.108 1.404-.252 2.952-.433-1.656-.611-2.34-1.26-2.196-1.943 .144-.757 1.116-1.549 3.06-2.376z" fill="#f7e42c" fill-rule="evenodd" stroke="#000" stroke-miterlimit="10" stroke-width=".036"/>
 <path d="m149.65 307.08-0.252-4.141-30.456-8.1 2.16 6.479 28.548 5.762z" fill="#f7e42c" fill-rule="evenodd" stroke="#000" stroke-miterlimit="10" stroke-width=".036"/>
 <path d="m152.82,305.46c.54,3.168 1.656,5.76 3.492,7.775 1.764,1.908 4.644,3.169 7.092,4.213 2.304.936 2.232.647 7.128,1.907 4.896,1.152 16.092,4.393 22.068,5.257 5.76.684 9.756.252 12.816-.469 3.024-.828 4.788-1.979 5.436-3.888-6.479-.108-14.364-1.332-24.083-3.816-9.721-2.555-20.989-6.084-33.949-10.979z" fill="#f7e42c" fill-rule="evenodd" stroke="#000" stroke-miterlimit="10" stroke-width=".036"/>
 <path d="m212.22,314.352c-6.768-.72-14.724-2.16-24.156-4.176-9.576-2.16-20.088-4.752-32.364-8.208l-1.584,2.124c7.812,3.744 16.416,6.768 26.1,9.216 9.684,2.376 20.016,4.141 31.536,5.292 .144-1.404.288-2.808.468-4.248z" fill="#f7e42c" fill-rule="evenodd" stroke="#000" stroke-miterlimit="10" stroke-width=".036"/>
 <path d="m166.068,303.012c6.66-4.067 13.212-7.812 20.196-11.52 6.912-3.744 16.812-7.849 21.096-10.513 4.176-2.808 3.564-3.996 3.996-5.939 .36-1.944-.144-3.924-1.656-5.796 1.296,2.124-.468,4.5-5.292,7.271-4.968,2.664-16.308,6.588-23.616,9-7.344,2.412-13.716,4.104-19.656,5.364-4.14,3.204-6.372,5.58-6.84,7.128-.54,1.404 2.124,1.152 4.104,2.016 1.944.865 4.5,1.765 7.668,2.989z" fill="#f7e42c" fill-rule="evenodd" stroke="#000" stroke-miterlimit="10" stroke-width=".036"/>
 <path d="m165.312,288.324 4.428-5.616c5.004-1.404 10.008-3.168 15.444-5.437 5.328-2.34 12.78-6.443 16.524-8.279 3.564-1.908 4.248-2.916 5.256-2.736 .936.072 1.224,2.232.576,3.708-.756,1.476.144,2.34-4.932,4.932-5.328,2.484-19.872,7.416-26.136,9.792-6.264,2.268-9.936,3.384-11.16,3.636z" fill="#f7e42c" fill-rule="evenodd" stroke="#000" stroke-miterlimit="10" stroke-width=".036"/>
 <path d="m185.832,274.14c-2.484-.576-4.68-1.943-6.732-4.248-2.124-2.412-4.716-6.443-5.688-9.72-1.008-3.313-.972-6.552-.036-9.864l22.716,19.188-10.26,4.644z" fill="#f7e42c" fill-rule="evenodd" stroke="#000" stroke-miterlimit="10" stroke-width=".036"/>
 <path d="m150.228,281.592c2.412-4.608 5.22-8.928 8.568-13.104 3.348-4.284 7.092-8.137 11.376-11.988l1.044-5.472-11.592,1.044c-6.876,7.235-11.484,13.752-14.364,19.691-2.916,5.868-3.744,11.844-2.484,15.552 1.152,3.564 4.428,5.58 9.684,6.049-1.548-2.053-2.448-3.996-2.844-5.977-.396-1.943-.144-3.923.612-5.795z" fill="#f7e42c" fill-rule="evenodd" stroke="#000" stroke-miterlimit="10" stroke-width=".036"/>
 <path d="m154.548,292.284 6.66-5.977c-1.908-2.195-2.592-3.96-2.052-5.724 .432-1.764 2.088-3.24 4.968-4.572-1.152-.36-1.728-1.656-1.332-3.6 .288-2.017 1.368-4.788 3.24-8.46-2.052,2.376-3.96,4.752-5.724,6.983-1.872,2.124-3.6,3.853-5.04,6.444-1.584,2.592-3.816,6.372-3.924,8.964-.072,2.45.864,4.429 3.204,5.942z" fill="#f7e42c" fill-rule="evenodd" stroke="#000" stroke-miterlimit="10" stroke-width=".036"/>
 <path d="m169.488,261.899c-1.512,2.484-2.484,4.788-3.06,6.912-.648,2.16-2.448,4.86-.252,5.725 2.196.684 6.624.288 13.428-1.332-1.332-1.477-2.952-3.132-4.572-4.969-1.656-1.979-3.6-3.96-5.544-6.336z" fill="#f7e42c" fill-rule="evenodd" stroke="#000" stroke-miterlimit="10" stroke-width=".036"/>
 <path d="m177.156,276.983c-3.672-.144-6.732-.144-9.036.288-2.484.36-4.104.685-5.004,1.944-.864,1.188-.792,2.952.072,5.292l6.192-4.032c2.592-1.151 5.184-2.303 7.776-3.492z" fill="#f7e42c" fill-rule="evenodd" stroke="#000" stroke-miterlimit="10" stroke-width=".036"/>
 <path d="m151.74,257.472c-1.08-4.392-1.044-8.136.108-11.376 1.08-3.312 4.248-5.76 6.732-7.884 2.484-2.34 6.48-4.716 7.956-5.04 1.296-.288.9,1.944.18,3.78-.828,1.8-3.636,4.823-4.536,7.128-.9,2.195-1.044,4.248-.576,6.155-1.26-.252-2.7.181-4.32,1.44-1.692,1.153-3.492,3.133-5.544,5.797z" fill="#f7e42c" fill-rule="evenodd" stroke="#000" stroke-miterlimit="10" stroke-width=".036"/>
 <path d="m167.832,248.904 1.152-9.685c-1.98-.252-3.384.432-4.212,2.196-.828,1.691-1.296,4.392-1.008,8.1 1.332-.179 2.7-.395 4.068-.611z" fill="#f7e42c" fill-rule="evenodd" stroke="#000" stroke-miterlimit="10" stroke-width=".036"/>
 <path d="m170.388,238.644c3.384-1.439 5.832-2.088 7.344-1.548 1.44.433 2.016,2.7 1.44,4.32-.684,1.476-3.78,3.924-5.256,5.004-1.548,1.08-2.7,1.476-3.6,1.332 0-3.024.036-6.048.072-9.108z" fill="#f7e42c" fill-rule="evenodd" stroke="#000" stroke-miterlimit="10" stroke-width=".036"/>
 <path d="m149.436,259.74c-.108-3.637-.54-6.769-1.44-9.252-.936-2.664-2.196-5.437-3.924-5.832-1.836-.433-5.724.18-6.264,3.636-.576,3.42.468,8.82 2.988,16.596l4.896,2.269c1.224-2.449 2.484-4.933 3.744-7.417z" fill="#f7e42c" fill-rule="evenodd" stroke="#000" stroke-miterlimit="10" stroke-width=".036"/>
 <path d="m145.188,268.74-8.388-5.112-1.764,3.276 5.976,11.592c.144-2.664.576-4.572 1.296-6.265 .72-1.655 1.584-2.771 2.88-3.491z" fill="#f7e42c" fill-rule="evenodd" stroke="#000" stroke-miterlimit="10" stroke-width=".036"/>
 <path d="m176.472,304.02c4.644-.18 10.44-.323 17.388-.432 6.912-.216 14.976-.216 24.192-.396-.72,1.225-1.404,2.628-1.656,4.068-.432,1.404-.432,2.988-.396,4.608 2.736,1.619 1.044,1.836-5.616.504-6.696-1.332-17.82-4.068-33.912-8.352z" fill="#f7e42c" fill-rule="evenodd" stroke="#000" stroke-miterlimit="10" stroke-width=".036"/>
 <path d="m203.544,285.768c9.936,4.824 14.112,7.524 12.672,8.244-1.584.576-8.568-.684-21.492-4.212 2.916-1.332 5.868-2.664 8.82-4.032z" fill="#f7e42c" fill-rule="evenodd" stroke="#000" stroke-miterlimit="10" stroke-width=".036"/>
 <path d="m215.892,296.712-1.115,5.112-11.017-.181-19.836-5.615 9.108-4.824c3.42,1.224 6.876,2.304 10.764,3.24 3.78.9 7.811,1.656 12.096,2.268z" fill="#f7e42c" fill-rule="evenodd" stroke="#000" stroke-miterlimit="10" stroke-width=".036"/>
 <path d="m182.52,296.64-7.74,3.853c9.576.756 15.156.899 17.172.72 1.836-.252-4.068-1.477-5.652-2.16-1.62-.829-2.88-1.585-3.78-2.413z" fill="#f7e42c" fill-rule="evenodd" stroke="#000" stroke-miterlimit="10" stroke-width=".036"/>
 <path d="m219.06,292.788c2.988-.36 5.616-.216 8.028.288 2.412.432 4.5,1.044 6.12,2.808 1.548,1.729 2.52,4.176 3.06,7.488l-18.936-2.34c1.62-1.009 2.52-2.124 2.844-3.492 .252-1.404-.072-2.988-1.116-4.752z" fill="#f7e42c" fill-rule="evenodd" stroke="#000" stroke-miterlimit="10" stroke-width=".036"/>
 <path d="m208.692,284.58c2.052-3.384 3.996-4.645 6.264-3.636 2.124,1.008 4.428,4.14 6.768,9.539l-4.788.757c-1.403-1.296-2.592-2.232-3.852-2.809-1.332-.612-2.844-.468-3.564-.972-.72-.719-1.044-1.547-.828-2.879z" fill="#f7e42c" fill-rule="evenodd" stroke="#000" stroke-miterlimit="10" stroke-width=".036"/>
</svg>
